<?xml version="1.0" encoding="UTF-8"?>
<svg width="604px" height="239px" viewBox="0 0 604 239" version="1.1" xmlns="http://www.w3.org/2000/svg" xmlns:xlink="http://www.w3.org/1999/xlink">
    <!-- Generator: Sketch 54.1 (76490) - https://sketchapp.com -->
    <title>Topology</title>
    <desc>Created with Sketch.</desc>
    <g id="Test:-Overview" stroke="none" stroke-width="1" fill="none" fill-rule="evenodd">
        <g id="Custom-Preset" transform="translate(-176.000000, -80.000000)">
            <g id="Topology" transform="translate(50.000000, 80.000000)">
                <g id="Consumers" transform="translate(663.408190, 146.235139)">
                    <polygon id="Line-29" fill="#001B3D" fill-rule="nonzero" points="32.3001092 41.003168 32.3001092 75.4953765 33.5858235 75.4953765 33.5858235 41.003168"></polygon>
                    <g id="Consumer" transform="translate(0.000000, 0.000000)">
                        <polygon id="Fill-50" fill="#001B3D" points="-1.42108547e-14 11.8221849 32.7542265 23.591196 65.5104613 11.8221849 32.7542265 0.0552419839"></polygon>
                        <polygon id="Fill-51" fill-opacity="0.1015" fill="#000000" points="0.247528121 23.8291101 0.247528121 11.7665426 33.0053507 5.54223334e-13 65.6305526 11.7665426 65.6305526 23.5346864 33.0053507 35.3032638 0.250790601 23.8291101"></polygon>
                        <path d="M34.6669536,14.7099796 L41.2185995,17.0630346 C42.1259557,17.3889489 42.1259557,17.9144817 41.2185995,18.240396 L34.6669536,20.593451 C33.7602645,20.9193654 32.2977997,20.9193654 31.3911239,20.593451 L24.839478,18.240396 C23.9321151,17.9144817 23.9321151,17.3889489 24.839478,17.0630346 L31.3911239,14.7099796 C32.2977997,14.3841319 33.7602645,14.3841319 34.6669536,14.7099796 Z" id="Fill-52" fill="#1AE7FF"></path>
                        <polygon id="Fill-53" fill="#3E4145" points="0.247528121 11.763607 0.247528121 23.5305499 32.9390403 35.2987003 32.9390403 23.5305499"></polygon>
                        <polygon id="Fill-54" fill="#3E4145" points="32.9390403 23.5352868 65.6305526 11.7667427 65.6305526 23.5352868 32.9390403 35.303891"></polygon>
                    </g>
                    <path d="M13.4686287,83.6365794 L12.4585251,83.6365794 C12.2959797,83.0154238 11.7444864,82.5103719 10.8446814,82.5103719 C9.71847393,82.5103719 9.01024036,83.4101769 9.01024036,84.826644 C9.01024036,86.2721371 9.73008432,87.1893577 10.8446814,87.1893577 C11.6864344,87.1893577 12.2727589,86.8004097 12.4585251,86.0921761 L13.4686287,86.0921761 C13.2886677,87.2416044 12.3540316,88.0891626 10.8504866,88.0891626 C9.09731826,88.0891626 7.97691597,86.8178253 7.97691597,84.826644 C7.97691597,82.8760991 9.09151307,81.610567 10.8446814,81.610567 C12.365642,81.610567 13.2944729,82.5219823 13.4686287,83.6365794 Z M17.5148484,88.0891626 C15.7326541,88.0891626 14.6296674,86.8584616 14.6296674,84.8498648 C14.6296674,82.8354628 15.7326541,81.610567 17.5148484,81.610567 C19.2970427,81.610567 20.4000294,82.8354628 20.4000294,84.8498648 C20.4000294,86.8584616 19.2970427,88.0891626 17.5148484,88.0891626 Z M17.5148484,87.1893577 C18.6991078,87.1893577 19.366705,86.3301891 19.366705,84.8498648 C19.366705,83.3637353 18.6991078,82.5103719 17.5148484,82.5103719 C16.330589,82.5103719 15.6629918,83.3637353 15.6629918,84.8498648 C15.6629918,86.3301891 16.330589,87.1893577 17.5148484,87.1893577 Z M21.9674316,87.9788639 L21.9674316,81.7208657 L22.9194833,81.7208657 L22.9194833,82.7077485 L23.0123664,82.7077485 C23.3258468,82.0169305 23.9353921,81.610567 24.8932489,81.610567 C26.2981057,81.610567 27.0818068,82.4407096 27.0818068,83.9268391 L27.0818068,87.9788639 L26.0833136,87.9788639 L26.0833136,84.1706572 C26.0833136,83.0444497 25.6072877,82.5103719 24.6087945,82.5103719 C23.6103013,82.5103719 22.9659248,83.1779692 22.9659248,84.2751507 L22.9659248,87.9788639 L21.9674316,87.9788639 Z M28.7595076,83.4333977 C28.7595076,82.3942681 29.763806,81.610567 31.0931953,81.610567 C32.4051689,81.610567 33.3165843,82.2607486 33.4501037,83.2882678 L32.4632209,83.2882678 C32.3297014,82.7890212 31.8420652,82.4581252 31.0873901,82.4581252 C30.3443254,82.4581252 29.763806,82.8354628 29.763806,83.3927613 C29.763806,83.8223456 30.1121176,84.0893845 30.8493772,84.2693455 L31.8130392,84.5015532 C32.9914935,84.7860077 33.5604024,85.2968647 33.5604024,86.1966696 C33.5604024,87.3170719 32.4748313,88.0891626 31.0525589,88.0891626 C29.6593126,88.0891626 28.7014557,87.4215654 28.591157,86.3824358 L29.6186762,86.3824358 C29.7870268,86.9107084 30.2862734,87.2474096 31.0873901,87.2474096 C31.9291431,87.2474096 32.5328832,86.8468513 32.5328832,86.2721371 C32.5328832,85.8425528 32.2077924,85.5522932 31.5401952,85.3897478 L30.4662344,85.1285141 C29.2935854,84.8440596 28.7595076,84.3390078 28.7595076,83.4333977 Z M40.189933,81.7208657 L40.189933,87.9788639 L39.2378813,87.9788639 L39.2378813,86.9977863 L39.1449982,86.9977863 C38.8315178,87.6944095 38.1639206,88.0891626 37.2060637,88.0891626 C35.801207,88.0891626 35.0697526,87.2532148 35.0697526,85.7728905 L35.0697526,81.7208657 L36.0682459,81.7208657 L36.0682459,85.5290724 C36.0682459,86.6552799 36.4862198,87.1777473 37.484713,87.1777473 C38.5876997,87.1777473 39.1914398,86.5217604 39.1914398,85.4245789 L39.1914398,81.7208657 L40.189933,81.7208657 Z M42.0708156,87.9788639 L42.0708156,81.7208657 L43.0228673,81.7208657 L43.0228673,82.7077485 L43.1157504,82.7077485 C43.4002049,82.0111253 44.0271657,81.610567 44.8631135,81.610567 C45.7106718,81.610567 46.3028015,82.0575669 46.5930611,82.7077485 L46.6859442,82.7077485 C47.0226454,82.0459565 47.7366842,81.610567 48.601658,81.610567 C49.8788005,81.610567 50.5928392,82.3420213 50.5928392,83.653995 L50.5928392,87.9788639 L49.594346,87.9788639 L49.594346,83.8862027 C49.594346,82.963177 49.1589565,82.5103719 48.2765671,82.5103719 C47.4057882,82.5103719 46.8252688,83.1605536 46.8252688,83.9558651 L46.8252688,87.9788639 L45.8267756,87.9788639 L45.8267756,83.7294625 C45.8267756,82.9863978 45.3101134,82.5103719 44.5206071,82.5103719 C43.7020749,82.5103719 43.0693088,83.2186055 43.0693088,84.1009949 L43.0693088,87.9788639 L42.0708156,87.9788639 Z M54.911903,82.4929564 C53.9134097,82.4929564 53.2167866,83.2244107 53.141319,84.3332026 L56.5896038,84.3332026 C56.566383,83.2244107 55.904591,82.4929564 54.911903,82.4929564 Z M56.5605778,86.359215 L57.5590711,86.359215 C57.2688114,87.4273706 56.2935389,88.0891626 54.9235134,88.0891626 C53.1877606,88.0891626 52.1021895,86.8352409 52.1021895,84.85567 C52.1021895,82.8877095 53.2051762,81.610567 54.9235134,81.610567 C56.6128246,81.610567 57.6403438,82.812242 57.6403438,84.7569817 L57.6403438,85.1401245 L53.141319,85.1401245 L53.141319,85.186566 C53.1935658,86.4230722 53.8843838,87.2067732 54.9467341,87.2067732 C55.753656,87.2067732 56.2993441,86.9107084 56.5605778,86.359215 Z M59.2077459,87.9788639 L59.2077459,81.7208657 L60.1597976,81.7208657 L60.1597976,82.6496966 L60.2526807,82.6496966 C60.4384469,82.0401513 61.1582908,81.610567 61.9884335,81.610567 C62.1509789,81.610567 62.3599658,81.6221774 62.4876801,81.639593 L62.4876801,82.6380862 C62.4064074,82.6148654 62.0464854,82.5800343 61.8491088,82.5800343 C60.8970572,82.5800343 60.2062392,83.2186055 60.2062392,84.1009949 L60.2062392,87.9788639 L59.2077459,87.9788639 Z" id="consumer" fill="#001B3D" fill-rule="nonzero"></path>
                </g>
                <g id="Out" transform="translate(496.961691, 151.273974)" fill="#001B3D" fill-rule="nonzero">
                    <polygon id="Line-28" points="134.048877 12.1386115 0 12.1386115 0 8.57190076 134.048877 8.57190076 134.048877 0.249575789 154.260238 10.3552561 134.048877 20.4609364 134.048877 12.1386115"></polygon>
                </g>
                <g id="Subject" transform="translate(416.710700, 136.723910)">
                    <path d="M1.28120614,91.3958007 L2.27969937,91.3958007 L2.27969937,93.0154496 L3.67294574,93.0154496 L3.67294574,93.8513974 L2.27969937,93.8513974 L2.27969937,97.3925652 C2.27969937,98.1298248 2.55834864,98.4433052 3.20853028,98.4433052 C3.38849127,98.4433052 3.48717955,98.4375 3.67294574,98.4200844 L3.67294574,99.2618374 C3.47556917,99.2966686 3.28399779,99.3198894 3.08662122,99.3198894 C1.79786833,99.3198894 1.28120614,98.8438635 1.28120614,97.6479937 L1.28120614,93.8513974 L0.271102522,93.8513974 L0.271102522,93.0154496 L1.28120614,93.0154496 L1.28120614,91.3958007 Z M7.59145114,93.7875402 C6.59295791,93.7875402 5.89633473,94.5189946 5.82086722,95.6277865 L9.26915198,95.6277865 C9.2459312,94.5189946 8.58413918,93.7875402 7.59145114,93.7875402 Z M9.24012601,97.6537989 L10.2386192,97.6537989 C9.94835958,98.7219545 8.97308712,99.3837465 7.60306153,99.3837465 C5.86730876,99.3837465 4.78173764,98.1298248 4.78173764,96.1502539 C4.78173764,94.1822934 5.88472434,92.9051509 7.60306153,92.9051509 C9.29237275,92.9051509 10.3198919,94.1068259 10.3198919,96.0515656 L10.3198919,96.4347083 L5.82086722,96.4347083 L5.82086722,96.4811499 C5.87311396,97.717656 6.56393195,98.5013571 7.6262823,98.5013571 C8.43320416,98.5013571 8.97889232,98.2052923 9.24012601,97.6537989 Z M11.7421643,94.7279815 C11.7421643,93.688852 12.7464627,92.9051509 14.0758519,92.9051509 C15.3878256,92.9051509 16.2992409,93.5553325 16.4327604,94.5828517 L15.4458775,94.5828517 C15.3123581,94.0836051 14.8247219,93.7527091 14.0700468,93.7527091 C13.326982,93.7527091 12.7464627,94.1300466 12.7464627,94.6873452 C12.7464627,95.1169295 13.0947743,95.3839684 13.8320338,95.5639294 L14.7956959,95.7961371 C15.9741501,96.0805916 16.5430591,96.5914486 16.5430591,97.4912535 C16.5430591,98.6116558 15.4574879,99.3837465 14.0352156,99.3837465 C12.6419692,99.3837465 11.6841123,98.7161493 11.5738137,97.6770197 L12.6013329,97.6770197 C12.7696835,98.2052923 13.2689301,98.5419935 14.0700468,98.5419935 C14.9117998,98.5419935 15.5155399,98.1414351 15.5155399,97.566721 C15.5155399,97.1371367 15.190449,96.8468771 14.5228518,96.6843317 L13.4488911,96.423098 C12.2762421,96.1386435 11.7421643,95.6335917 11.7421643,94.7279815 Z M18.4703832,91.3958007 L19.4688764,91.3958007 L19.4688764,93.0154496 L20.8621228,93.0154496 L20.8621228,93.8513974 L19.4688764,93.8513974 L19.4688764,97.3925652 C19.4688764,98.1298248 19.7475257,98.4433052 20.3977073,98.4433052 C20.5776683,98.4433052 20.6763566,98.4375 20.8621228,98.4200844 L20.8621228,99.2618374 C20.6647462,99.2966686 20.4731748,99.3198894 20.2757983,99.3198894 C18.9870454,99.3198894 18.4703832,98.8438635 18.4703832,97.6479937 L18.4703832,93.8513974 L17.4602796,93.8513974 L17.4602796,93.0154496 L18.4703832,93.0154496 L18.4703832,91.3958007 Z M25.5817449,94.7279815 C25.5817449,93.688852 26.5860433,92.9051509 27.9154325,92.9051509 C29.2274062,92.9051509 30.1388215,93.5553325 30.272341,94.5828517 L29.2854581,94.5828517 C29.1519387,94.0836051 28.6643024,93.7527091 27.9096273,93.7527091 C27.1665626,93.7527091 26.5860433,94.1300466 26.5860433,94.6873452 C26.5860433,95.1169295 26.9343549,95.3839684 27.6716144,95.5639294 L28.6352765,95.7961371 C29.8137307,96.0805916 30.3826396,96.5914486 30.3826396,97.4912535 C30.3826396,98.6116558 29.2970685,99.3837465 27.8747962,99.3837465 C26.4815498,99.3837465 25.5236929,98.7161493 25.4133943,97.6770197 L26.4409135,97.6770197 C26.6092641,98.2052923 27.1085107,98.5419935 27.9096273,98.5419935 C28.7513803,98.5419935 29.3551204,98.1414351 29.3551204,97.566721 C29.3551204,97.1371367 29.0300296,96.8468771 28.3624324,96.6843317 L27.2884717,96.423098 C26.1158226,96.1386435 25.5817449,95.6335917 25.5817449,94.7279815 Z M37.0121703,93.0154496 L37.0121703,99.2734478 L36.0601186,99.2734478 L36.0601186,98.2923702 L35.9672355,98.2923702 C35.6537551,98.9889934 34.9861578,99.3837465 34.028301,99.3837465 C32.6234442,99.3837465 31.8919899,98.5477987 31.8919899,97.0674744 L31.8919899,93.0154496 L32.8904831,93.0154496 L32.8904831,96.8236563 C32.8904831,97.9498638 33.308457,98.4723312 34.3069502,98.4723312 C35.4099369,98.4723312 36.013677,97.8163443 36.013677,96.7191628 L36.013677,93.0154496 L37.0121703,93.0154496 Z M42.0046364,99.3837465 C41.1338574,99.3837465 40.3907927,98.9715778 39.9960396,98.2749546 L39.9031565,98.2749546 L39.9031565,99.2734478 L38.9511048,99.2734478 L38.9511048,90.5308269 L39.949598,90.5308269 L39.949598,94.0023324 L40.0424811,94.0023324 C40.3849875,93.32893 41.1454678,92.9051509 42.0046364,92.9051509 C43.5952594,92.9051509 44.6285837,94.1764882 44.6285837,96.1444487 C44.6285837,98.1007988 43.5894542,99.3837465 42.0046364,99.3837465 Z M41.7724287,93.8049558 C40.6346108,93.8049558 39.9263772,94.6989556 39.9263772,96.1444487 C39.9263772,97.5899418 40.6346108,98.4839415 41.7724287,98.4839415 C42.9160517,98.4839415 43.5952594,97.6073574 43.5952594,96.1444487 C43.5952594,94.68154 42.9160517,93.8049558 41.7724287,93.8049558 Z M47.2176999,93.0154496 L47.2176999,99.5811231 C47.2176999,100.869876 46.6139598,101.421369 45.3019862,101.421369 L45.1278304,101.421369 L45.1278304,100.568006 L45.2787654,100.568006 C45.9869989,100.568006 46.2192067,100.289357 46.2192067,99.5985386 L46.2192067,93.0154496 L47.2176999,93.0154496 Z M46.7300637,91.8079694 C46.3469209,91.8079694 46.0334405,91.4944889 46.0334405,91.1113462 C46.0334405,90.7282034 46.3469209,90.414723 46.7300637,90.414723 C47.1132064,90.414723 47.4266869,90.7282034 47.4266869,91.1113462 C47.4266869,91.4944889 47.1132064,91.8079694 46.7300637,91.8079694 Z M51.6180363,93.7875402 C50.6195431,93.7875402 49.9229199,94.5189946 49.8474524,95.6277865 L53.2957372,95.6277865 C53.2725164,94.5189946 52.6107244,93.7875402 51.6180363,93.7875402 Z M53.2667112,97.6537989 L54.2652044,97.6537989 C53.9749448,98.7219545 52.9996723,99.3837465 51.6296467,99.3837465 C49.893894,99.3837465 48.8083228,98.1298248 48.8083228,96.1502539 C48.8083228,94.1822934 49.9113095,92.9051509 51.6296467,92.9051509 C53.318958,92.9051509 54.3464772,94.1068259 54.3464772,96.0515656 L54.3464772,96.4347083 L49.8474524,96.4347083 L49.8474524,96.4811499 C49.8996992,97.717656 50.5905172,98.5013571 51.6528675,98.5013571 C52.4597894,98.5013571 53.0054775,98.2052923 53.2667112,97.6537989 Z M61.0921116,94.9311633 L60.082008,94.9311633 C59.9194626,94.3100076 59.3679693,93.8049558 58.4681643,93.8049558 C57.3419568,93.8049558 56.6337233,94.7047608 56.6337233,96.1212279 C56.6337233,97.566721 57.3535672,98.4839415 58.4681643,98.4839415 C59.3099173,98.4839415 59.8962418,98.0949936 60.082008,97.38676 L61.0921116,97.38676 C60.9121507,98.5361883 59.9775146,99.3837465 58.4739695,99.3837465 C56.7208012,99.3837465 55.6003989,98.1124092 55.6003989,96.1212279 C55.6003989,94.170683 56.714996,92.9051509 58.4681643,92.9051509 C59.9891249,92.9051509 60.9179558,93.8165662 61.0921116,94.9311633 Z M63.1007085,91.3958007 L64.0992017,91.3958007 L64.0992017,93.0154496 L65.4924481,93.0154496 L65.4924481,93.8513974 L64.0992017,93.8513974 L64.0992017,97.3925652 C64.0992017,98.1298248 64.377851,98.4433052 65.0280326,98.4433052 C65.2079936,98.4433052 65.3066819,98.4375 65.4924481,98.4200844 L65.4924481,99.2618374 C65.2950715,99.2966686 65.1035001,99.3198894 64.9061236,99.3198894 C63.6173707,99.3198894 63.1007085,98.8438635 63.1007085,97.6479937 L63.1007085,93.8513974 L62.0906049,93.8513974 L62.0906049,93.0154496 L63.1007085,93.0154496 L63.1007085,91.3958007 Z" id="testsubject" fill="#001B3D" fill-rule="nonzero"></path>
                    <g id="Vector" transform="translate(0.594452, 0.000000)">
                        <polygon id="Stroke-1" stroke-opacity="0.0961538462" stroke="#001B3D" stroke-linecap="round" stroke-linejoin="round" points="0 34.1170745 32.2557992 47.5561427 64.5109414 34.1170745 32.2557992 20.6765838"></polygon>
                        <polygon id="Stroke-7" stroke-opacity="0.0961538462" stroke="#001B3D" stroke-linecap="round" stroke-linejoin="round" points="31.841939 0.827063351 64.5109414 14.1461565 64.3523508 33.9095974 31.90934 20.7345899"></polygon>
                        <polygon id="Stroke-9" stroke-opacity="0.0961538462" stroke="#001B3D" stroke-linecap="round" stroke-linejoin="round" points="0.413531675 13.9754824 0.413531675 33.9095974 32.6690024 20.716557 32.6017515 0.827063351"></polygon>
                        <polygon id="Fill-11" fill-opacity="0.6" fill="#E6E6E6" points="0.0667300424 34.0143766 0 13.5505095 32.1874322 0 64.5109414 13.6867537 64.4048537 33.9665984 32.1874322 47.5561427"></polygon>
                        <polygon id="Stroke-13" stroke-opacity="0.0961538462" stroke="#001B3D" stroke-linecap="round" stroke-linejoin="round" points="0.0667300424 34.0143793 0 13.5505163 32.1874322 0 64.5109414 13.6867605 64.4048275 33.9666011 32.1874322 47.5561427"></polygon>
                        <g transform="translate(11.165355, 10.338292)">
                            <polygon id="Fill-21" fill="#10E7FF" points="0 20.7678032 20.9085454 29.002691 41.8166082 20.7678032 20.9085454 12.532027"></polygon>
                            <polygon id="Fill-22" fill="#10E7FF" points="0 8.23533202 0 20.7381407 21.4537381 29.002691 21.4537381 16.6065748"></polygon>
                            <polygon id="Fill-23" fill="#10E7FF" points="21.4537381 16.5422057 42.1802309 8.23533202 42.0782348 20.6957955 21.4537381 29.002691"></polygon>
                            <polygon id="Fill-24" fill="#10E7FF" points="21.0901154 0 42.1802309 8.36094718 42.0778245 20.767359 21.1336309 12.4968403"></polygon>
                            <polygon id="Fill-25" fill="#10E7FF" points="0 8.25383729 0 20.767359 21.0901154 12.4855324 21.0464907 0"></polygon>
                            <polygon id="Fill-26" fill="#10E7FF" points="0.0436347216 20.7440861 0 8.26393439 21.0456565 0 42.1802309 8.34705453 42.1108517 20.7149452 21.0456565 29.002691"></polygon>
                            <polygon id="Fill-21-Copy" fill-opacity="0.30736451" fill="#FFFFFF" points="0 8.23577622 20.9085454 16.470664 41.8166082 8.23577622 20.9085454 0"></polygon>
                        </g>
                        <polygon id="Stroke-3" stroke-opacity="0.0961538462" stroke="#001B3D" stroke-linecap="round" stroke-linejoin="round" points="0.413531675 14.4736086 0.413531675 34.3906539 32.6690024 47.5561427 32.6690024 27.8090705"></polygon>
                        <polygon id="Stroke-5" stroke-opacity="0.0961538462" stroke="#001B3D" stroke-linecap="round" stroke-linejoin="round" points="31.841939 27.7065289 64.5109414 14.4736086 64.3517742 34.3232224 31.841939 47.5561427"></polygon>
                    </g>
                    <polygon id="Line-26" fill="#001B3D" fill-rule="nonzero" points="33.0888847 85.3038309 33.0888847 55.8784676 31.8031704 55.8784676 31.8031704 85.3038309"></polygon>
                </g>
                <g id="In" transform="translate(195.574637, 126.023778)" fill="#001B3D" fill-rule="nonzero">
                    <polygon id="Line-25" points="199.437594 36.5309045 0.296235696 36.1989117 0.298217739 35.0100098 199.439576 35.3420025 199.445522 31.7752968 207.760898 35.9503278 199.431648 40.0976102 199.437594 36.5309045"></polygon>
                    <path d="M199.423622,36.2718326 C134.007578,34.0454794 89.6203429,30.5422423 66.2351643,25.7561204 C41.856115,20.7665881 19.9760887,12.7499766 0.597329107,1.70536445 L0.0808682245,1.41101588 L0.66956536,0.378094116 L1.18602624,0.672442684 C20.4525005,11.6530596 42.2142603,19.6263395 66.4735495,24.5913611 C89.7732858,29.359996 134.111839,32.8593968 199.462458,35.0835624 L199.578939,31.5195367 L207.760898,35.9503278 L199.30709,39.8374205 L199.423622,36.2718326 L199.423622,36.2718326 Z" id="Line-30"></path>
                    <path d="M199.423622,65.39997 C134.007578,63.1736168 89.6203429,59.6703797 66.2351643,54.8842578 C41.8686437,49.8972897 20.0003189,42.6792907 0.631017037,33.2291036 L0.0967615228,32.968443 L0.618082799,31.8999319 L1.15233831,32.1605926 C20.4282703,41.565225 42.2017317,48.7519127 66.4735495,53.7194985 C89.7732858,58.4881334 134.111839,61.9875341 199.462458,64.2116998 L199.578939,60.6476741 L207.760898,65.0784652 L199.30709,68.9655579 L199.423622,65.39997 L199.423622,65.39997 Z" id="Line-30" transform="translate(103.928830, 50.432745) scale(1, -1) translate(-103.928830, -50.432745) "></path>
                    <path d="M199.43068,36.2483919 C139.481121,35.3095469 95.6257025,33.5963225 67.8577596,31.107871 C38.7866643,28.5026363 16.3944265,24.0666678 0.671320942,17.791203 L0.119219653,17.5708463 L0.559933119,16.4666437 L1.11203441,16.6870004 C16.7105091,22.912722 38.9976992,27.3278803 67.9638791,29.923713 C95.6958498,32.4089407 139.526215,34.1211918 199.448311,35.0596187 L199.501196,31.49377 L207.760898,35.7778898 L199.377781,39.8151798 L199.43068,36.2483919 Z" id="Line"></path>
                    <path d="M199.43068,51.7041383 C139.481121,50.7652933 95.6257025,49.0520688 67.8577596,46.5636174 C38.7866643,43.9583827 16.3944265,39.5224141 0.671320942,33.2469494 L0.119219653,33.0265926 L0.559933119,31.9223901 L1.11203441,32.1427468 C16.7105091,38.3684684 38.9976992,42.7836267 67.9638791,45.3794593 C95.6958498,47.8646871 139.526215,49.5769381 199.448311,50.515365 L199.501196,46.9495164 L207.760898,51.2336362 L199.377781,55.2709262 L199.43068,51.7041383 L199.43068,51.7041383 Z" id="Line" transform="translate(103.940059, 43.596658) scale(1, -1) translate(-103.940059, -43.596658) "></path>
                </g>
                <g id="Producers" transform="translate(126.023778, 108.784676)">
                    <g id="Producer-5" transform="translate(0.024821, 66.578600)">
                        <polygon id="Fill-50" fill="#001B3D" points="-1.42108547e-14 11.8221849 32.7542265 23.591196 65.5104613 11.8221849 32.7542265 0.0552419839"></polygon>
                        <polygon id="Fill-51" fill-opacity="0.1015" fill="#000000" points="0.247528121 23.8291101 0.247528121 11.7665426 33.0053507 5.54223334e-13 65.6305526 11.7665426 65.6305526 23.5346864 33.0053507 35.3032638 0.250790601 23.8291101"></polygon>
                        <path d="M34.6669536,14.7099796 L41.2185995,17.0630346 C42.1259557,17.3889489 42.1259557,17.9144817 41.2185995,18.240396 L34.6669536,20.593451 C33.7602645,20.9193654 32.2977997,20.9193654 31.3911239,20.593451 L24.839478,18.240396 C23.9321151,17.9144817 23.9321151,17.3889489 24.839478,17.0630346 L31.3911239,14.7099796 C32.2977997,14.3841319 33.7602645,14.3841319 34.6669536,14.7099796 Z" id="Fill-52" fill="#1AE7FF"></path>
                        <polygon id="Fill-53" fill="#3E4145" points="0.247528121 11.763607 0.247528121 23.5305499 32.9390403 35.2987003 32.9390403 23.5305499"></polygon>
                        <polygon id="Fill-54" fill="#3E4145" points="32.9390403 23.5352868 65.6305526 11.7667427 65.6305526 23.5352868 32.9390403 35.303891"></polygon>
                    </g>
                    <g id="Producer-4" transform="translate(0.024821, 49.933950)">
                        <polygon id="Fill-50" fill="#001B3D" points="-1.42108547e-14 11.8221849 32.7542265 23.591196 65.5104613 11.8221849 32.7542265 0.0552419839"></polygon>
                        <polygon id="Fill-51" fill-opacity="0.1015" fill="#000000" points="0.247528121 23.8291101 0.247528121 11.7665426 33.0053507 5.54223334e-13 65.6305526 11.7665426 65.6305526 23.5346864 33.0053507 35.3032638 0.250790601 23.8291101"></polygon>
                        <path d="M34.6669536,14.7099796 L41.2185995,17.0630346 C42.1259557,17.3889489 42.1259557,17.9144817 41.2185995,18.240396 L34.6669536,20.593451 C33.7602645,20.9193654 32.2977997,20.9193654 31.3911239,20.593451 L24.839478,18.240396 C23.9321151,17.9144817 23.9321151,17.3889489 24.839478,17.0630346 L31.3911239,14.7099796 C32.2977997,14.3841319 33.7602645,14.3841319 34.6669536,14.7099796 Z" id="Fill-52" fill="#1AE7FF"></path>
                        <polygon id="Fill-53" fill="#3E4145" points="0.247528121 11.763607 0.247528121 23.5305499 32.9390403 35.2987003 32.9390403 23.5305499"></polygon>
                        <polygon id="Fill-54" fill="#3E4145" points="32.9390403 23.5352868 65.6305526 11.7667427 65.6305526 23.5352868 32.9390403 35.303891"></polygon>
                    </g>
                    <g id="Producer-3" transform="translate(0.024821, 33.289300)">
                        <polygon id="Fill-50" fill="#001B3D" points="-1.42108547e-14 11.8221849 32.7542265 23.591196 65.5104613 11.8221849 32.7542265 0.0552419839"></polygon>
                        <polygon id="Fill-51" fill-opacity="0.1015" fill="#000000" points="0.247528121 23.8291101 0.247528121 11.7665426 33.0053507 5.54223334e-13 65.6305526 11.7665426 65.6305526 23.5346864 33.0053507 35.3032638 0.250790601 23.8291101"></polygon>
                        <path d="M34.6669536,14.7099796 L41.2185995,17.0630346 C42.1259557,17.3889489 42.1259557,17.9144817 41.2185995,18.240396 L34.6669536,20.593451 C33.7602645,20.9193654 32.2977997,20.9193654 31.3911239,20.593451 L24.839478,18.240396 C23.9321151,17.9144817 23.9321151,17.3889489 24.839478,17.0630346 L31.3911239,14.7099796 C32.2977997,14.3841319 33.7602645,14.3841319 34.6669536,14.7099796 Z" id="Fill-52" fill="#1AE7FF"></path>
                        <polygon id="Fill-53" fill="#3E4145" points="0.247528121 11.763607 0.247528121 23.5305499 32.9390403 35.2987003 32.9390403 23.5305499"></polygon>
                        <polygon id="Fill-54" fill="#3E4145" points="32.9390403 23.5352868 65.6305526 11.7667427 65.6305526 23.5352868 32.9390403 35.303891"></polygon>
                    </g>
                    <g id="Producer-2" transform="translate(0.024821, 16.644650)">
                        <polygon id="Fill-50" fill="#001B3D" points="-1.42108547e-14 11.8221849 32.7542265 23.591196 65.5104613 11.8221849 32.7542265 0.0552419839"></polygon>
                        <polygon id="Fill-51" fill-opacity="0.1015" fill="#000000" points="0.247528121 23.8291101 0.247528121 11.7665426 33.0053507 5.54223334e-13 65.6305526 11.7665426 65.6305526 23.5346864 33.0053507 35.3032638 0.250790601 23.8291101"></polygon>
                        <path d="M34.6669536,14.7099796 L41.2185995,17.0630346 C42.1259557,17.3889489 42.1259557,17.9144817 41.2185995,18.240396 L34.6669536,20.593451 C33.7602645,20.9193654 32.2977997,20.9193654 31.3911239,20.593451 L24.839478,18.240396 C23.9321151,17.9144817 23.9321151,17.3889489 24.839478,17.0630346 L31.3911239,14.7099796 C32.2977997,14.3841319 33.7602645,14.3841319 34.6669536,14.7099796 Z" id="Fill-52" fill="#1AE7FF"></path>
                        <polygon id="Fill-53" fill="#3E4145" points="0.247528121 11.763607 0.247528121 23.5305499 32.9390403 35.2987003 32.9390403 23.5305499"></polygon>
                        <polygon id="Fill-54" fill="#3E4145" points="32.9390403 23.5352868 65.6305526 11.7667427 65.6305526 23.5352868 32.9390403 35.303891"></polygon>
                    </g>
                    <g id="Producer-1" transform="translate(0.024821, 0.000000)">
                        <polygon id="Fill-50" fill="#001B3D" points="-1.42108547e-14 11.8221849 32.7542265 23.591196 65.5104613 11.8221849 32.7542265 0.0552419839"></polygon>
                        <polygon id="Fill-51" fill-opacity="0.1015" fill="#000000" points="0.247528121 23.8291101 0.247528121 11.7665426 33.0053507 5.54223334e-13 65.6305526 11.7665426 65.6305526 23.5346864 33.0053507 35.3032638 0.250790601 23.8291101"></polygon>
                        <path d="M34.6669536,14.7099796 L41.2185995,17.0630346 C42.1259557,17.3889489 42.1259557,17.9144817 41.2185995,18.240396 L34.6669536,20.593451 C33.7602645,20.9193654 32.2977997,20.9193654 31.3911239,20.593451 L24.839478,18.240396 C23.9321151,17.9144817 23.9321151,17.3889489 24.839478,17.0630346 L31.3911239,14.7099796 C32.2977997,14.3841319 33.7602645,14.3841319 34.6669536,14.7099796 Z" id="Fill-52" fill="#1AE7FF"></path>
                        <polygon id="Fill-53" fill="#3E4145" points="0.247528121 11.763607 0.247528121 23.5305499 32.9390403 35.2987003 32.9390403 23.5305499"></polygon>
                        <polygon id="Fill-54" fill="#3E4145" points="32.9390403 23.5352868 65.6305526 11.7667427 65.6305526 23.5352868 32.9390403 35.303891"></polygon>
                    </g>
                    <polygon id="Line-26" fill="#001B3D" fill-rule="nonzero" points="33.6833365 115.02642 33.6833365 107.001321 32.3976222 107.001321 32.3976222 115.02642"></polygon>
                    <path d="M9.39744675,121.438836 C10.9938749,121.438836 12.0271993,122.710174 12.0271993,124.678134 C12.0271993,126.634484 10.9880697,127.917432 9.39744675,127.917432 C8.50344699,127.917432 7.78360304,127.528484 7.44109664,126.866692 L7.34821355,126.866692 L7.34821355,129.897003 L6.34972032,129.897003 L6.34972032,121.549135 L7.301772,121.549135 L7.301772,122.59407 L7.39465509,122.59407 C7.79521342,121.874226 8.54408335,121.438836 9.39744675,121.438836 Z M9.15943383,127.017627 C10.3088621,127.017627 10.9938749,126.141043 10.9938749,124.678134 C10.9938749,123.215226 10.3088621,122.338641 9.16523902,122.338641 C8.03322635,122.338641 7.31918758,123.238446 7.31918758,124.678134 C7.31918758,126.112017 8.03322635,127.017627 9.15943383,127.017627 Z M13.5946014,127.807133 L13.5946014,121.549135 L14.5466531,121.549135 L14.5466531,122.477966 L14.6395362,122.477966 C14.8253024,121.868421 15.5451463,121.438836 16.375289,121.438836 C16.5378344,121.438836 16.7468213,121.450447 16.8745356,121.467862 L16.8745356,122.466356 C16.7932629,122.443135 16.4333409,122.408304 16.2359643,122.408304 C15.2839126,122.408304 14.5930947,123.046875 14.5930947,123.929264 L14.5930947,127.807133 L13.5946014,127.807133 Z M20.5201969,127.917432 C18.7380026,127.917432 17.6350159,126.686731 17.6350159,124.678134 C17.6350159,122.663732 18.7380026,121.438836 20.5201969,121.438836 C22.3023912,121.438836 23.4053779,122.663732 23.4053779,124.678134 C23.4053779,126.686731 22.3023912,127.917432 20.5201969,127.917432 Z M20.5201969,127.017627 C21.7044563,127.017627 22.3720535,126.158459 22.3720535,124.678134 C22.3720535,123.192005 21.7044563,122.338641 20.5201969,122.338641 C19.3359375,122.338641 18.6683403,123.192005 18.6683403,124.678134 C18.6683403,126.158459 19.3359375,127.017627 20.5201969,127.017627 Z M27.2890522,127.917432 C25.6868189,127.917432 24.6592997,126.646095 24.6592997,124.678134 C24.6592997,122.715979 25.6984292,121.438836 27.2890522,121.438836 C28.1598312,121.438836 28.8970907,121.851005 29.2512075,122.536018 L29.3382854,122.536018 L29.3382854,119.064512 L30.3367786,119.064512 L30.3367786,127.807133 L29.3847269,127.807133 L29.3847269,126.80864 L29.2918438,126.80864 C28.8970907,127.505263 28.154026,127.917432 27.2890522,127.917432 Z M27.5212599,122.338641 C26.383442,122.338641 25.6926241,123.221031 25.6926241,124.678134 C25.6926241,126.141043 26.3776368,127.017627 27.5212599,127.017627 C28.6590778,127.017627 29.3615062,126.123627 29.3615062,124.678134 C29.3615062,123.244252 28.6532726,122.338641 27.5212599,122.338641 Z M37.3378416,121.549135 L37.3378416,127.807133 L36.3857899,127.807133 L36.3857899,126.826056 L36.2929068,126.826056 C35.9794264,127.522679 35.3118292,127.917432 34.3539723,127.917432 C32.9491155,127.917432 32.2176612,127.081484 32.2176612,125.60116 L32.2176612,121.549135 L33.2161544,121.549135 L33.2161544,125.357342 C33.2161544,126.483549 33.6341283,127.006017 34.6326216,127.006017 C35.7356083,127.006017 36.3393484,126.35003 36.3393484,125.252848 L36.3393484,121.549135 L37.3378416,121.549135 Z M44.3969565,123.464849 L43.3868529,123.464849 C43.2243075,122.843693 42.6728142,122.338641 41.7730092,122.338641 C40.6468017,122.338641 39.9385682,123.238446 39.9385682,124.654914 C39.9385682,126.100407 40.6584121,127.017627 41.7730092,127.017627 C42.6147622,127.017627 43.2010867,126.628679 43.3868529,125.920446 L44.3969565,125.920446 C44.2169955,127.069874 43.2823594,127.917432 41.7788144,127.917432 C40.0256461,127.917432 38.9052438,126.646095 38.9052438,124.654914 C38.9052438,122.704369 40.0198409,121.438836 41.7730092,121.438836 C43.2939698,121.438836 44.2228007,122.350252 44.3969565,123.464849 Z M48.3677087,122.321226 C47.3692154,122.321226 46.6725923,123.05268 46.5971248,124.161472 L50.0454095,124.161472 C50.0221887,123.05268 49.3603967,122.321226 48.3677087,122.321226 Z M50.0163835,126.187485 L51.0148768,126.187485 C50.7246171,127.25564 49.7493447,127.917432 48.3793191,127.917432 C46.6435663,127.917432 45.5579952,126.66351 45.5579952,124.683939 C45.5579952,122.715979 46.6609819,121.438836 48.3793191,121.438836 C50.0686303,121.438836 51.0961495,122.640511 51.0961495,124.585251 L51.0961495,124.968394 L46.5971248,124.968394 L46.5971248,125.014835 C46.6493715,126.251342 47.3401895,127.035043 48.4025398,127.035043 C49.2094617,127.035043 49.7551499,126.738978 50.0163835,126.187485 Z M52.6635516,127.807133 L52.6635516,121.549135 L53.6156033,121.549135 L53.6156033,122.477966 L53.7084864,122.477966 C53.8942526,121.868421 54.6140966,121.438836 55.4442392,121.438836 C55.6067846,121.438836 55.8157715,121.450447 55.9434858,121.467862 L55.9434858,122.466356 C55.8622131,122.443135 55.5022911,122.408304 55.3049145,122.408304 C54.3528629,122.408304 53.6620449,123.046875 53.6620449,123.929264 L53.6620449,127.807133 L52.6635516,127.807133 Z M56.9303686,123.261667 C56.9303686,122.222538 57.9346671,121.438836 59.2640563,121.438836 C60.57603,121.438836 61.4874453,122.089018 61.6209647,123.116537 L60.6340819,123.116537 C60.5005625,122.617291 60.0129262,122.286395 59.2582511,122.286395 C58.5151864,122.286395 57.9346671,122.663732 57.9346671,123.221031 C57.9346671,123.650615 58.2829787,123.917654 59.0202382,124.097615 L59.9839003,124.329823 C61.1623545,124.614277 61.7312634,125.125134 61.7312634,126.024939 C61.7312634,127.145341 60.6456923,127.917432 59.22342,127.917432 C57.8301736,127.917432 56.8723167,127.249835 56.762018,126.210705 L57.7895372,126.210705 C57.9578878,126.738978 58.4571345,127.075679 59.2582511,127.075679 C60.1000041,127.075679 60.7037442,126.675121 60.7037442,126.100407 C60.7037442,125.670822 60.3786534,125.380563 59.7110562,125.218017 L58.6370954,124.956784 C57.4644464,124.672329 56.9303686,124.167277 56.9303686,123.261667 Z" id="producers" fill="#001B3D" fill-rule="nonzero"></path>
                </g>
                <g id="Logo" transform="translate(372.126816, 0.000000)">
                    <path d="M40.0259692,60.6340819 L36.7416811,60.6340819 L32.350633,47.6498965 L35.4189679,47.6498965 L38.3703281,57.5747451 L38.532293,57.5747451 L41.4296649,47.6498965 L44.354031,47.6498965 L40.0259692,60.6340819 Z M57.8997611,58.3125851 L57.8997611,60.6340819 L49.2976258,60.6340819 L49.2976258,47.6498965 L57.8997611,47.6498965 L57.8997611,49.9713933 L52.0150367,49.9713933 L52.0150367,53.003736 L57.5668332,53.003736 L57.5668332,55.1542698 L52.0150367,55.1542698 L52.0150367,58.3125851 L57.8997611,58.3125851 Z M69.0070198,60.9670097 C65.2458351,60.9670097 62.9153403,58.3665734 62.9153403,54.1374902 C62.9153403,49.917405 65.236837,47.3169687 69.0070198,47.3169687 C72.0843527,47.3169687 74.4418416,49.3595259 74.6397987,52.1849135 L71.9943722,52.1849135 C71.7334287,50.6912373 70.5546843,49.7104499 69.0070198,49.7104499 C66.9644625,49.7104499 65.6957376,51.4020832 65.6957376,54.1374902 C65.6957376,56.8728972 66.9644625,58.5735286 69.0160178,58.5735286 C70.5726804,58.5735286 71.7424268,57.6557275 72.0033702,56.2250377 L74.6487968,56.2250377 C74.4238455,59.0324291 72.138341,60.9670097 69.0070198,60.9670097 Z M85.4771159,60.6340819 L82.759705,60.6340819 L82.759705,49.9713933 L78.8635496,49.9713933 L78.8635496,47.6498965 L89.3732713,47.6498965 L89.3732713,49.9713933 L85.4771159,49.9713933 L85.4771159,60.6340819 Z M99.7336919,47.3169687 C103.557863,47.3169687 105.978338,49.9354011 105.978338,54.1374902 C105.978338,58.3485773 103.566861,60.9670097 99.7336919,60.9670097 C95.8735287,60.9670097 93.4800476,58.3485773 93.4800476,54.1374902 C93.4800476,49.9264031 95.9095209,47.3169687 99.7336919,47.3169687 Z M99.7336919,49.7014518 C97.6191503,49.7014518 96.2604448,51.4200793 96.2604448,54.1374902 C96.2604448,56.8459031 97.5921562,58.5825266 99.7336919,58.5825266 C101.848234,58.5825266 103.197941,56.8459031 103.197941,54.1374902 C103.197941,51.4200793 101.839235,49.7014518 99.7336919,49.7014518 Z M113.999266,49.8454206 L113.999266,53.8405546 L116.383749,53.8405546 C117.751453,53.8405546 118.552279,53.1027145 118.552279,51.8519856 C118.552279,50.6192529 117.706462,49.8454206 116.356755,49.8454206 L113.999266,49.8454206 Z M113.999266,55.928102 L113.999266,60.6340819 L111.281855,60.6340819 L111.281855,47.6498965 L116.734673,47.6498965 C119.587055,47.6498965 121.341674,49.2335532 121.341674,51.8159934 C121.341674,53.4716345 120.477862,54.9113224 118.984185,55.5051937 L121.719592,60.6340819 L118.642259,60.6340819 L116.221784,55.928102 L113.999266,55.928102 Z M11.5435116,82.6287979 L9.92386269,82.6287979 L9.92386269,71.1022965 L5.73976969,71.1022965 L5.73976969,69.6446125 L15.7276046,69.6446125 L15.7276046,71.1022965 L11.5435116,71.1022965 L11.5435116,82.6287979 Z M22.9217336,74.1256412 C21.3740691,74.1256412 20.2943032,75.2593954 20.1773285,76.9780228 L25.5221699,76.9780228 C25.4861777,75.2593954 24.4604001,74.1256412 22.9217336,74.1256412 Z M25.4771797,80.1183421 L27.0248442,80.1183421 C26.5749417,81.7739832 25.0632694,82.7997608 22.9397297,82.7997608 C20.2493129,82.7997608 18.5666777,80.8561821 18.5666777,77.7878473 C18.5666777,74.7375085 20.2763071,72.7579376 22.9397297,72.7579376 C25.5581621,72.7579376 27.1508169,74.6205339 27.1508169,77.6348804 L27.1508169,78.2287517 L20.1773285,78.2287517 L20.1773285,78.3007361 C20.258311,80.2173206 21.3290789,81.4320573 22.9757219,81.4320573 C24.2264508,81.4320573 25.0722674,80.9731568 25.4771797,80.1183421 Z M32.176416,75.5833252 C32.176416,73.9726743 33.7330785,72.7579376 35.7936319,72.7579376 C37.827191,72.7579376 39.2398848,73.7657192 39.4468399,75.3583739 L37.9171715,75.3583739 C37.7102164,74.5845417 36.9543802,74.0716529 35.7846338,74.0716529 C34.6328835,74.0716529 33.7330785,74.6565261 33.7330785,75.5203388 C33.7330785,76.1861945 34.2729615,76.6001048 35.4157138,76.8790443 L36.90939,77.2389663 C38.735994,77.6798707 39.6178029,78.471699 39.6178029,79.8663967 C39.6178029,81.6030202 37.9351676,82.7997608 35.7306455,82.7997608 C33.5711137,82.7997608 32.0864355,81.7649851 31.9154726,80.1543343 L33.5081273,80.1543343 C33.7690707,80.9731568 34.542903,81.4950437 35.7846338,81.4950437 C37.089351,81.4950437 38.0251481,80.8741782 38.0251481,79.9833713 C38.0251481,79.3175157 37.5212574,78.8676132 36.4864817,78.6156678 L34.8218425,78.2107556 C33.0042365,77.7698512 32.176416,76.9870209 32.176416,75.5833252 Z M45.4262323,70.4184448 L46.9738968,70.4184448 L46.9738968,72.9289006 L49.1334287,72.9289006 L49.1334287,74.2246197 L46.9738968,74.2246197 L46.9738968,79.7134299 C46.9738968,80.8561821 47.4058032,81.3420768 48.4135847,81.3420768 C48.6925243,81.3420768 48.8454911,81.3330788 49.1334287,81.3060846 L49.1334287,82.6108018 C48.827495,82.6647901 48.5305594,82.7007823 48.2246257,82.7007823 C46.2270587,82.7007823 45.4262323,81.9629422 45.4262323,80.109344 L45.4262323,74.2246197 L43.8605717,74.2246197 L43.8605717,72.9289006 L45.4262323,72.9289006 L45.4262323,70.4184448 Z M72.8796582,82.6287979 L71.2600093,82.6287979 L71.2600093,76.7170794 L64.1335541,76.7170794 L64.1335541,82.6287979 L62.5139052,82.6287979 L62.5139052,69.6446125 L64.1335541,69.6446125 L64.1335541,75.2593954 L71.2600093,75.2593954 L71.2600093,69.6446125 L72.8796582,69.6446125 L72.8796582,82.6287979 Z M81.8014127,81.4410554 C83.3940675,81.4410554 84.572812,80.3972816 84.572812,79.011582 L84.572812,78.1207751 L81.9633776,78.291738 C80.4876975,78.3907166 79.8398379,78.9036054 79.8398379,79.8753948 C79.8398379,80.8651802 80.6766565,81.4410554 81.8014127,81.4410554 Z M81.5134751,82.7997608 C79.6328828,82.7997608 78.2381851,81.6840027 78.2381851,79.911387 C78.2381851,78.1747634 79.5159082,77.1759799 81.7744186,77.0410092 L84.572812,76.8700462 L84.572812,75.9882374 C84.572812,74.7914968 83.8259739,74.1346392 82.3772879,74.1346392 C81.2165395,74.1346392 80.4067151,74.5755436 80.1907619,75.3403778 L78.6251013,75.3403778 C78.8320564,73.7837153 80.3617248,72.7579376 82.4312762,72.7579376 C84.7977632,72.7579376 86.1204765,73.9726743 86.1204765,75.9882374 L86.1204765,82.6287979 L84.6447964,82.6287979 L84.6447964,81.198108 L84.5008276,81.198108 C83.8709641,82.2328837 82.8091943,82.7997608 81.5134751,82.7997608 Z M91.8029332,82.6287979 L91.8029332,72.9289006 L93.2786133,72.9289006 L93.2786133,74.3685885 L93.4225821,74.3685885 C93.7105197,73.4237933 94.8262778,72.7579376 96.1129989,72.7579376 C96.3649443,72.7579376 96.688874,72.7759337 96.8868311,72.8029279 L96.8868311,74.3505924 C96.7608584,74.3146002 96.2029794,74.2606119 95.8970457,74.2606119 C94.4213656,74.2606119 93.3505977,75.2503973 93.3505977,76.6181009 L93.3505977,82.6287979 L91.8029332,82.6287979 Z M101.82245,82.6287979 L101.82245,72.9289006 L103.29813,72.9289006 L103.29813,74.458569 L103.442099,74.458569 C103.927993,73.3878011 104.872789,72.7579376 106.357467,72.7579376 C108.534995,72.7579376 109.749731,74.0446587 109.749731,76.3481594 L109.749731,82.6287979 L108.202067,82.6287979 L108.202067,76.7260774 C108.202067,74.9804558 107.464227,74.1526353 105.916562,74.1526353 C104.368898,74.1526353 103.370114,75.187411 103.370114,76.8880423 L103.370114,82.6287979 L101.82245,82.6287979 Z M119.265357,74.1256412 C117.717693,74.1256412 116.637927,75.2593954 116.520952,76.9780228 L121.865793,76.9780228 C121.829801,75.2593954 120.804024,74.1256412 119.265357,74.1256412 Z M121.820803,80.1183421 L123.368468,80.1183421 C122.918565,81.7739832 121.406893,82.7997608 119.283353,82.7997608 C116.592936,82.7997608 114.910301,80.8561821 114.910301,77.7878473 C114.910301,74.7375085 116.619931,72.7579376 119.283353,72.7579376 C121.901786,72.7579376 123.49444,74.6205339 123.49444,77.6348804 L123.49444,78.2287517 L116.520952,78.2287517 L116.520952,78.3007361 C116.601934,80.2173206 117.672702,81.4320573 119.319345,81.4320573 C120.570074,81.4320573 121.415891,80.9731568 121.820803,80.1183421 Z M128.520039,75.5833252 C128.520039,73.9726743 130.076702,72.7579376 132.137255,72.7579376 C134.170815,72.7579376 135.583508,73.7657192 135.790463,75.3583739 L134.260795,75.3583739 C134.05384,74.5845417 133.298004,74.0716529 132.128257,74.0716529 C130.976507,74.0716529 130.076702,74.6565261 130.076702,75.5203388 C130.076702,76.1861945 130.616585,76.6001048 131.759337,76.8790443 L133.253014,77.2389663 C135.079618,77.6798707 135.961426,78.471699 135.961426,79.8663967 C135.961426,81.6030202 134.278791,82.7997608 132.074269,82.7997608 C129.914737,82.7997608 128.430059,81.7649851 128.259096,80.1543343 L129.851751,80.1543343 C130.112694,80.9731568 130.886526,81.4950437 132.128257,81.4950437 C133.432974,81.4950437 134.368772,80.8741782 134.368772,79.9833713 C134.368772,79.3175157 133.864881,78.8676132 132.830105,78.6156678 L131.165466,78.2107556 C129.34786,77.7698512 128.520039,76.9870209 128.520039,75.5833252 Z M140.807065,75.5833252 C140.807065,73.9726743 142.363727,72.7579376 144.42428,72.7579376 C146.45784,72.7579376 147.870533,73.7657192 148.077488,75.3583739 L146.54782,75.3583739 C146.340865,74.5845417 145.585029,74.0716529 144.415282,74.0716529 C143.263532,74.0716529 142.363727,74.6565261 142.363727,75.5203388 C142.363727,76.1861945 142.90361,76.6001048 144.046362,76.8790443 L145.540039,77.2389663 C147.366643,77.6798707 148.248451,78.471699 148.248451,79.8663967 C148.248451,81.6030202 146.565816,82.7997608 144.361294,82.7997608 C142.201762,82.7997608 140.717084,81.7649851 140.546121,80.1543343 L142.138776,80.1543343 C142.399719,80.9731568 143.173552,81.4950437 144.415282,81.4950437 C145.72,81.4950437 146.655797,80.8741782 146.655797,79.9833713 C146.655797,79.3175157 146.151906,78.8676132 145.11713,78.6156678 L143.452491,78.2107556 C141.634885,77.7698512 140.807065,76.9870209 140.807065,75.5833252 Z" id="VECTORTestHarness" fill="#001B3D" fill-rule="nonzero"></path>
                    <g transform="translate(49.397969, 0.000000)" fill="#5FEFFF">
                        <polygon id="Rectangle" points="48.6891588 0 57.2789243 4.77781631e-13 36.8221656 33.7548234 32.5779267 26.7697175"></polygon>
                        <polygon id="Triangle-Copy" transform="translate(20.349092, 16.788583) scale(1, -1) translate(-20.349092, -16.788583) " points="20.3490915 9.09494702e-13 40.698183 33.5771665 30.5480366 33.5771665 20.557248 17.1616629 10.5616234 33.5771665 0 33.5771665"></polygon>
                    </g>
                </g>
            </g>
        </g>
    </g>
</svg>